<?xml version="1.0" encoding="UTF-8"?>
<svg width="752pt" height="752pt" version="1.1" viewBox="0 0 752 752" xmlns="http://www.w3.org/2000/svg">
 <path d="m577.95 335.11-192.39-162.79c-2.6719-2.2617-6.0586-3.5-9.5625-3.5-3.5 0-6.8867 1.2383-9.5586 3.5l-192.39 162.79h-0.003906c-3.0977 2.5039-5.0547 6.1523-5.4297 10.117-0.37109 3.9648 0.86719 7.9141 3.4414 10.957 2.5742 3.0391 6.2656 4.9141 10.238 5.1992 3.9727 0.28125 7.8906-1.0469 10.871-3.6875l20.039-16.961v198.06c0 11.777 4.6797 23.07 13.004 31.395 8.3281 8.3281 19.621 13.004 31.395 13.004h59.199c7.8477 0 15.379-3.1172 20.93-8.668 5.5508-5.5508 8.668-13.078 8.668-20.93v-103.59h59.199v103.6-0.003906c0 7.8516 3.1172 15.379 8.668 20.93 5.5508 5.5508 13.078 8.668 20.93 8.668h59.199c11.773 0 23.066-4.6758 31.391-13.004 8.3281-8.3242 13.004-19.617 13.004-31.395v-198.06l20.039 16.961c2.9805 2.6406 6.9023 3.9688 10.875 3.6875 3.9727-0.28516 7.6641-2.1602 10.238-5.1992 2.5742-3.043 3.8125-6.9922 3.4375-10.957-0.375-3.9648-2.332-7.6133-5.4297-10.117zm-68.758-18.305v221.99c0 3.9258-1.5586 7.6914-4.332 10.465-2.7773 2.7773-6.543 4.3359-10.465 4.3359h-59.199v-103.59c0-7.8516-3.1172-15.379-8.668-20.93-5.5508-5.5508-13.082-8.6719-20.93-8.6719h-59.199c-7.8516 0-15.379 3.1211-20.93 8.6719-5.5508 5.5508-8.668 13.078-8.668 20.93v103.6l-59.199-0.003906c-3.9258 0-7.6875-1.5586-10.465-4.3359-2.7734-2.7734-4.332-6.5391-4.332-10.465v-221.99c0-0.33984-0.16406-0.62109-0.19141-0.94531l133.38-112.86 133.39 112.86c-0.027344 0.32812-0.19141 0.60938-0.19141 0.94922z"/>
</svg>
