<?xml version="1.0" encoding="utf-8"?>
<!-- Generator: Adobe Illustrator 27.2.0, SVG Export Plug-In . SVG Version: 6.00 Build 0)  -->
<svg version="1.1" id="Layer_1" xmlns="http://www.w3.org/2000/svg" xmlns:xlink="http://www.w3.org/1999/xlink" x="0px" y="0px"
	 viewBox="0 0 24 24" style="enable-background:new 0 0 24 24;" xml:space="preserve">
<path d="M7,20.5c1.6,0.5,3.3,0.8,5,0.8c3.5,0,7.6-0.9,7.6-3.6c0-1.5-0.5-3-1.3-4.3c-0.9-1.3-2.1-2.2-3.5-2.8
	c0.9-0.8,1.5-1.9,1.6-3.1c0.1-1.2-0.3-2.4-1.2-3.3c-0.8-0.9-2-1.4-3.2-1.4c-1.2,0-2.4,0.5-3.2,1.4C7.9,5,7.5,6.2,7.6,7.4
	c0.1,1.2,0.7,2.3,1.6,3.1c-1.4,0.6-2.6,1.5-3.5,2.8s-1.3,2.8-1.3,4.3C4.4,18.5,4.8,19.7,7,20.5L7,20.5z M9.1,7.1
	c0-0.8,0.3-1.5,0.8-2c0.5-0.5,1.3-0.8,2-0.8c0.8,0,1.5,0.3,2,0.8c0.5,0.5,0.8,1.3,0.8,2s-0.3,1.5-0.8,2c-0.5,0.5-1.3,0.8-2,0.8
	c-0.8,0-1.5-0.3-2-0.8C9.4,8.6,9.1,7.9,9.1,7.1z M12,11.6c1.6,0,3.2,0.6,4.3,1.8c1.1,1.1,1.8,2.7,1.8,4.3c0,1.1-2.7,2.1-6.1,2.1
	s-6.1-0.9-6.1-2.1h0c0-1.6,0.6-3.2,1.8-4.3C8.8,12.2,10.4,11.6,12,11.6L12,11.6z"/>
</svg>
