<?xml version="1.0" encoding="UTF-8"?>
<svg width="752pt" height="752pt" version="1.1" viewBox="0 0 752 752" xmlns="http://www.w3.org/2000/svg">
 <path d="m280.44 539.06c30.805 10.211 63.113 15.125 95.559 14.531 67.516 0 146.36-18.152 146.36-69.289-0.046875-29.352-8.9102-58.008-25.434-82.262-16.527-24.254-39.957-42.984-67.254-53.77 18.07-14.84 29.191-36.504 30.715-59.836 1.5234-23.336-6.6836-46.262-22.672-63.328-15.988-17.066-38.328-26.746-61.715-26.746-23.383 0-45.723 9.6797-61.711 26.746-15.988 17.066-24.195 39.992-22.672 63.328 1.5234 23.332 12.645 44.996 30.715 59.836-27.297 10.785-50.727 29.516-67.254 53.77-16.527 24.254-25.387 52.91-25.434 82.262 0 16.441 8.8125 39.297 50.797 54.758zm40.594-256.09c0-14.578 5.793-28.559 16.102-38.867 10.305-10.309 24.285-16.098 38.863-16.098s28.559 5.7891 38.867 16.098c10.309 10.309 16.098 24.289 16.098 38.867s-5.7891 28.559-16.098 38.867c-10.309 10.305-24.289 16.098-38.867 16.098-14.57-0.019531-28.543-5.8125-38.844-16.117-10.305-10.305-16.102-24.277-16.121-38.848zm54.965 84.562c30.957 0.042969 60.633 12.359 82.52 34.246 21.891 21.891 34.203 51.566 34.242 82.523 0 21.887-52.383 39.691-116.76 39.691s-116.76-17.805-116.76-39.691h0.003907c0.039062-30.957 12.352-60.633 34.242-82.523 21.887-21.887 51.562-34.203 82.516-34.246z"/>
</svg>
